<?xml version="1.0" standalone="no"?>
<!DOCTYPE svg PUBLIC "-//W3C//DTD SVG 20010904//EN"
 "http://www.w3.org/TR/2001/REC-SVG-20010904/DTD/svg10.dtd">
<svg version="1.0" xmlns="http://www.w3.org/2000/svg"
 width="1408.000000pt" height="1408.000000pt" viewBox="0 0 1408.000000 1408.000000"
 preserveAspectRatio="xMidYMid meet">

<g transform="translate(0.000000,1408.000000) scale(0.100000,-0.100000)"
fill="#000000" stroke="none">
<path d="M6880 10908 c-229 -14 -335 -24 -349 -32 -7 -5 -52 -12 -100 -17
-102 -9 -202 -28 -215 -40 -6 -5 -26 -9 -46 -9 -20 0 -45 -7 -56 -15 -10 -8
-35 -15 -54 -15 -19 0 -44 -7 -54 -15 -11 -8 -34 -15 -52 -15 -18 0 -35 -4
-38 -9 -4 -5 -24 -12 -46 -16 -22 -4 -42 -11 -46 -16 -3 -5 -18 -9 -33 -9 -16
0 -34 -7 -41 -15 -7 -8 -27 -15 -44 -15 -18 0 -37 -5 -44 -12 -12 -12 -69 -35
-109 -45 -13 -3 -23 -9 -23 -14 0 -5 -11 -9 -24 -9 -13 0 -29 -7 -36 -15 -7
-8 -22 -15 -34 -15 -11 0 -30 -7 -40 -15 -11 -8 -27 -15 -37 -15 -9 0 -22 -7
-29 -15 -7 -8 -21 -15 -31 -15 -11 0 -19 -4 -19 -10 0 -5 -8 -10 -19 -10 -10
0 -24 -7 -31 -15 -7 -8 -19 -15 -26 -15 -8 0 -33 -13 -56 -30 -22 -16 -47 -30
-55 -30 -7 0 -13 -4 -13 -10 0 -5 -8 -10 -19 -10 -10 0 -24 -7 -31 -15 -7 -8
-17 -15 -22 -15 -5 0 -24 -11 -42 -25 -18 -14 -36 -25 -39 -25 -4 0 -36 -20
-73 -45 -36 -25 -68 -45 -72 -45 -4 0 -27 -18 -52 -40 -25 -22 -50 -40 -55
-40 -6 0 -29 -17 -50 -37 -22 -21 -60 -51 -85 -67 -68 -45 -398 -380 -473
-482 -36 -49 -82 -110 -102 -136 -19 -25 -35 -50 -35 -55 0 -4 -11 -20 -24
-34 -13 -14 -27 -35 -30 -47 -4 -12 -12 -22 -17 -22 -5 0 -9 -5 -9 -11 0 -6
-14 -31 -30 -56 -17 -24 -30 -47 -30 -50 0 -3 -10 -20 -23 -37 -25 -34 -72
-127 -82 -163 -4 -13 -11 -23 -16 -23 -5 0 -9 -8 -9 -18 0 -10 -7 -27 -15 -38
-8 -10 -15 -27 -15 -36 0 -9 -6 -29 -14 -45 -26 -53 -46 -104 -46 -118 0 -8
-4 -15 -10 -15 -5 0 -10 -10 -10 -23 0 -13 -7 -32 -15 -43 -8 -10 -15 -30 -15
-44 0 -14 -7 -36 -15 -50 -8 -14 -14 -37 -15 -52 0 -15 -5 -30 -10 -33 -5 -3
-10 -21 -10 -38 0 -18 -7 -45 -15 -61 -8 -15 -15 -44 -15 -63 0 -19 -5 -44
-12 -56 -7 -12 -15 -49 -19 -82 -4 -33 -12 -82 -19 -108 -7 -30 -10 -102 -8
-195 4 -139 6 -150 32 -200 63 -116 181 -186 349 -208 316 -42 793 22 1362
181 72 20 153 42 180 50 249 68 718 221 1175 382 896 317 1100 386 1540 527
274 87 638 198 760 231 47 13 184 51 305 85 183 51 432 115 840 215 169 41
630 127 830 154 390 53 689 52 816 -3 92 -39 115 -126 58 -224 -32 -57 -183
-217 -234 -248 -16 -10 -51 -35 -76 -56 -25 -21 -51 -38 -57 -38 -7 0 -12 -4
-12 -8 0 -4 -21 -21 -47 -38 -25 -16 -52 -34 -59 -41 -6 -7 -29 -22 -50 -33
-22 -12 -52 -30 -69 -40 -16 -10 -49 -29 -72 -41 -24 -13 -43 -26 -43 -31 0
-4 -8 -8 -19 -8 -10 0 -24 -7 -31 -15 -7 -8 -16 -15 -21 -15 -12 0 -129 -86
-151 -112 -10 -12 -18 -27 -18 -33 0 -7 -7 -15 -15 -19 -8 -3 -15 -16 -15 -30
0 -13 -6 -26 -12 -29 -10 -3 -13 -35 -12 -118 1 -96 5 -122 24 -163 69 -151
253 -230 421 -180 115 34 910 464 1294 699 301 185 383 238 578 377 574 409
832 737 738 943 -38 86 -118 131 -321 185 -157 42 -823 43 -1000 1 -25 -5 -89
-10 -143 -11 -54 0 -108 -5 -119 -11 -20 -11 -87 -20 -275 -38 -50 -5 -100
-14 -111 -20 -12 -6 -41 -11 -67 -11 -25 0 -62 -7 -82 -15 -19 -8 -56 -15 -82
-15 -26 0 -51 -4 -57 -10 -5 -5 -37 -13 -69 -16 -33 -4 -68 -10 -77 -15 -9 -5
-38 -9 -65 -9 -26 0 -61 -7 -77 -15 -15 -8 -47 -15 -71 -15 -23 0 -59 -7 -78
-15 -20 -8 -51 -15 -70 -15 -18 0 -38 -5 -44 -11 -5 -5 -36 -13 -67 -16 -31
-3 -59 -10 -62 -14 -3 -5 -24 -9 -47 -9 -23 0 -55 -7 -71 -15 -15 -8 -43 -15
-61 -15 -18 0 -46 -7 -61 -15 -16 -8 -42 -15 -57 -15 -16 0 -37 -5 -48 -11
-19 -10 -65 -20 -169 -38 -25 -4 -55 -13 -67 -19 -12 -7 -38 -12 -58 -12 -20
0 -44 -4 -53 -9 -9 -5 -35 -11 -56 -12 -39 -4 -41 -2 -109 81 -167 207 -331
374 -522 534 -158 133 -256 202 -480 343 -59 37 -176 101 -215 118 -25 10 -61
29 -80 40 -19 12 -60 31 -90 44 -30 12 -64 26 -75 31 -68 29 -182 70 -260 94
-49 15 -103 32 -120 38 -16 5 -46 14 -65 19 -19 4 -64 16 -100 25 -36 8 -99
20 -140 26 -41 5 -79 14 -84 19 -6 5 -36 9 -67 9 -31 0 -73 7 -92 15 -20 8
-62 15 -92 15 -31 0 -75 4 -98 10 -56 12 -275 17 -417 8z"/>
<path d="M9815 7498 c-22 -5 -71 -13 -110 -17 -38 -4 -83 -13 -98 -19 -16 -7
-52 -12 -82 -12 -30 0 -57 -4 -60 -10 -3 -5 -28 -12 -56 -16 -27 -4 -52 -11
-55 -15 -3 -5 -26 -9 -52 -9 -26 0 -60 -7 -76 -15 -15 -8 -42 -15 -60 -15 -17
-1 -42 -7 -56 -15 -14 -8 -44 -14 -67 -15 -23 0 -44 -4 -47 -9 -4 -5 -24 -12
-46 -16 -22 -4 -42 -11 -46 -16 -3 -5 -20 -9 -38 -9 -18 0 -41 -7 -52 -15 -10
-8 -35 -15 -54 -15 -19 0 -44 -7 -54 -15 -11 -8 -34 -15 -52 -15 -17 0 -45 -7
-60 -15 -16 -8 -37 -15 -46 -15 -9 0 -20 -4 -23 -10 -3 -5 -21 -10 -38 -10
-18 0 -41 -7 -51 -15 -11 -8 -31 -15 -45 -15 -14 -1 -37 -7 -51 -15 -14 -8
-37 -14 -52 -15 -15 0 -30 -4 -33 -10 -3 -5 -14 -10 -23 -10 -9 0 -30 -7 -46
-15 -15 -8 -36 -15 -45 -15 -9 0 -29 -7 -45 -15 -15 -8 -38 -15 -50 -15 -11 0
-30 -7 -40 -15 -11 -8 -32 -15 -47 -15 -15 0 -31 -4 -34 -10 -3 -5 -13 -10
-22 -10 -8 0 -29 -6 -46 -13 -49 -21 -99 -38 -127 -44 -14 -3 -34 -12 -45 -19
-11 -8 -29 -14 -41 -14 -12 0 -35 -7 -50 -15 -16 -8 -37 -15 -46 -15 -9 0 -20
-4 -23 -10 -3 -5 -16 -10 -29 -10 -12 0 -31 -7 -42 -15 -10 -8 -31 -15 -45
-15 -15 0 -32 -7 -39 -15 -7 -8 -25 -15 -40 -15 -14 0 -30 -3 -34 -7 -10 -11
-99 -43 -117 -43 -9 0 -22 -7 -29 -15 -7 -8 -22 -15 -34 -15 -12 0 -31 -7 -42
-15 -10 -8 -28 -15 -39 -15 -11 0 -29 -7 -39 -15 -11 -8 -30 -15 -42 -15 -13
0 -26 -4 -29 -10 -3 -5 -19 -10 -34 -10 -16 0 -34 -7 -41 -15 -7 -8 -24 -15
-39 -15 -14 0 -35 -7 -45 -15 -11 -8 -29 -15 -40 -15 -12 0 -30 -7 -40 -15
-11 -8 -30 -15 -42 -15 -13 0 -26 -4 -29 -10 -3 -5 -19 -10 -34 -10 -15 0 -36
-7 -47 -15 -10 -8 -30 -15 -44 -15 -14 0 -34 -7 -44 -15 -11 -8 -30 -15 -42
-15 -12 0 -35 -7 -50 -15 -16 -8 -37 -15 -46 -15 -9 0 -20 -4 -23 -10 -3 -5
-18 -10 -33 -10 -15 0 -36 -7 -46 -15 -11 -8 -34 -15 -50 -15 -17 0 -40 -7
-50 -15 -11 -8 -30 -15 -42 -15 -12 0 -35 -7 -50 -15 -16 -8 -37 -15 -46 -15
-9 0 -20 -4 -23 -10 -3 -5 -19 -10 -34 -10 -15 0 -36 -7 -47 -15 -10 -8 -32
-15 -49 -15 -16 0 -39 -7 -49 -15 -11 -8 -27 -15 -37 -15 -9 0 -30 -7 -45 -15
-16 -8 -41 -15 -56 -15 -15 0 -30 -4 -33 -10 -3 -5 -21 -10 -39 -10 -18 0 -41
-7 -52 -15 -10 -8 -32 -15 -49 -15 -16 0 -41 -7 -55 -15 -14 -8 -37 -14 -52
-15 -15 0 -29 -4 -32 -9 -3 -5 -23 -12 -43 -16 -21 -4 -42 -10 -48 -15 -5 -4
-26 -10 -45 -13 -19 -2 -51 -10 -70 -17 -19 -6 -48 -17 -65 -22 -16 -6 -46
-13 -65 -16 -19 -2 -44 -11 -55 -18 -11 -8 -32 -14 -47 -14 -15 0 -30 -4 -33
-10 -3 -5 -21 -10 -38 -10 -18 -1 -43 -7 -57 -15 -14 -8 -41 -15 -60 -15 -19
0 -46 -7 -60 -15 -14 -8 -42 -14 -62 -15 -20 0 -39 -4 -42 -9 -3 -5 -26 -12
-51 -15 -24 -4 -47 -11 -50 -17 -4 -5 -23 -9 -44 -9 -20 0 -46 -7 -57 -15 -10
-8 -35 -15 -54 -15 -19 0 -46 -7 -60 -15 -14 -8 -41 -14 -61 -15 -20 0 -50 -7
-65 -15 -16 -8 -43 -15 -61 -15 -17 0 -35 -4 -38 -10 -3 -5 -25 -10 -48 -10
-23 0 -55 -7 -71 -15 -15 -8 -47 -15 -70 -15 -22 -1 -52 -7 -66 -15 -14 -8
-45 -14 -70 -15 -26 0 -51 -5 -57 -11 -12 -12 -90 -26 -209 -38 -44 -5 -90
-13 -102 -20 -11 -6 -47 -11 -79 -11 -32 0 -74 -5 -93 -11 -19 -7 -84 -15
-145 -19 -60 -4 -141 -13 -180 -20 -77 -14 -299 -8 -350 8 -16 6 -55 18 -85
28 -99 31 -130 66 -130 147 0 141 297 394 820 697 219 127 264 158 287 204 24
47 21 135 -6 179 -39 64 -68 77 -165 77 -73 0 -92 -4 -124 -24 -20 -12 -47
-26 -59 -30 -13 -4 -23 -12 -23 -17 0 -5 -7 -9 -15 -9 -18 0 -359 -170 -363
-182 -2 -4 -12 -8 -22 -8 -9 0 -23 -7 -30 -15 -7 -8 -21 -15 -32 -15 -10 0
-21 -7 -24 -15 -4 -8 -14 -15 -24 -15 -10 0 -23 -7 -30 -15 -7 -8 -21 -15 -31
-15 -11 0 -19 -4 -19 -10 0 -5 -8 -10 -18 -10 -10 0 -22 -4 -28 -10 -12 -12
-92 -57 -127 -71 -15 -6 -27 -15 -27 -20 0 -5 -8 -9 -19 -9 -10 0 -24 -7 -31
-15 -7 -8 -21 -15 -31 -15 -10 0 -20 -4 -23 -9 -3 -5 -25 -19 -48 -32 -61 -32
-89 -48 -123 -69 -16 -10 -49 -29 -72 -41 -24 -13 -43 -26 -43 -31 0 -4 -9 -8
-20 -8 -10 0 -23 -6 -27 -13 -4 -7 -25 -21 -45 -32 -21 -11 -38 -23 -38 -27 0
-5 -6 -8 -13 -8 -7 0 -44 -20 -81 -45 -38 -25 -72 -45 -76 -45 -4 0 -13 -6
-19 -14 -7 -8 -26 -21 -44 -30 -54 -28 -219 -137 -244 -161 -8 -8 -18 -15 -23
-15 -5 0 -21 -11 -36 -25 -15 -14 -32 -25 -39 -25 -6 0 -24 -13 -41 -28 -16
-16 -42 -37 -59 -48 -16 -10 -51 -35 -76 -56 -25 -21 -49 -38 -53 -38 -4 0
-28 -20 -54 -44 -26 -24 -69 -62 -97 -83 -67 -53 -139 -126 -189 -193 -22 -30
-46 -59 -52 -65 -16 -14 -107 -154 -117 -180 -68 -170 -1 -297 193 -367 143
-53 274 -67 590 -67 434 -1 777 37 1485 164 78 14 413 82 515 105 19 4 98 22
175 39 77 17 149 33 160 36 241 61 486 115 520 115 86 0 114 -21 250 -185 180
-218 464 -469 736 -652 57 -39 131 -85 164 -103 33 -18 71 -41 85 -50 81 -56
402 -200 590 -265 609 -210 1285 -253 1935 -124 497 99 1093 354 1514 647 868
603 1328 1429 1422 2550 23 277 -15 439 -128 544 -36 34 -94 66 -141 77 -20 6
-55 15 -77 20 -50 13 -456 12 -510 -1z"/>
</g>
</svg>
